<?xml version="1.0" encoding="utf-8"?>
<!-- Generator: Adobe Illustrator 24.1.2, SVG Export Plug-In . SVG Version: 6.00 Build 0)  -->
<svg version="1.1" id="svg" xmlns="http://www.w3.org/2000/svg" xmlns:xlink="http://www.w3.org/1999/xlink" x="0px"
	y="0px" viewBox="0 0 1920 1080" style="enable-background:new 0 0 1920 1080;" xml:space="preserve">
	<style type="text/css">
		.st0 {
			fill: #FFFFFF;
			fill-opacity: 0.88;
			animation-delay: 2s;
			animation: animateW 12s infinite;
			transform-origin: center;
		}

		.st1 {
			fill: #2563EB;
			stroke: #FFFFFF;
			stroke-miterlimit: 10;
			animation-delay: 2s;
			animation: animateF 12s infinite;
			transform-origin: center;
		}

		@keyframes animateF {
			0% {
				transform: translateY(-20px);
			}

			50% {
				transform: translateY(0px);
			}

			100% {
				transform: translateY(-20px);
			}
		}

		@keyframes animateW {
			0% {
				transform: translateY(0px);
			}

			50% {
				transform: translateY(-20px);
			}

			100% {
				transform: translateY(0px);
			}
		}
	</style>
	<path class="st0" d="M0,1080V947.5c99.7-23.7,265.8,115.9,414.8,59C550,954.9,703.6,867.7,823.3,902.8
	c139,40.8,316.9,100,406.9,76.6c102.1-25.5,144.7-11.9,271-0.3c126.3,11.7,257.2-80.1,418.7-79.5V1080H0z" />
	<path class="st1" d="M0,1080v-76.7c35,76.7,125.9,2.7,257-51.1c207.8-85.3,233.6-69.8,421.2-1.6c140.7,51.1,433,21.6,544.3-1.3
	c98,34.4,147.5,63.2,262,8.7c116.4-55.5,273.5-20.1,435.5-25.9V1080H0z" />
</svg>