<?xml version="1.0" encoding="utf-8"?>
<!-- Generator: Adobe Illustrator 24.1.2, SVG Export Plug-In . SVG Version: 6.00 Build 0)  -->
<svg version="1.1" id="svg" xmlns="http://www.w3.org/2000/svg" xmlns:xlink="http://www.w3.org/1999/xlink" x="0px" y="0px"
	 viewBox="0 0 654.3 1080" style="enable-background:new 0 0 654.3 1080;" xml:space="preserve">
<style type="text/css">
	.st0 {
			fill: #FFFFFF;
			fill-opacity: 0.88;
			animation-delay: 2s;
			animation: animateW 12s infinite;
			transform-origin: center;
		}

		.st1 {
			fill: #2563EB;
			stroke: #FFFFFF;
			stroke-miterlimit: 10;
			animation-delay: 2s;
			animation: animateF 12s infinite;
			transform-origin: center;
			opacity: 95%;
		}

		@keyframes animateF {
			0% {
				transform: translateY(-20px);
			}

			50% {
				transform: translateY(0px);
			}

			100% {
				transform: translateY(-20px);
			}
		}

		@keyframes animateW {
			0% {
				transform: translateY(0px);
			}

			50% {
				transform: translateY(-20px);
			}

			100% {
				transform: translateY(0px);
			}
		}
</style>
<path class="st0" d="M0,1080V947.5c34-23.7,90.6,115.9,141.4,59c46.1-51.6,98.4-138.8,139.2-103.7c47.4,40.8,108,100,138.7,76.6
	c34.8-25.5,49.3-11.9,92.4-0.3c43,11.7,87.7-80.1,142.7-79.5V1080H0z"/>
<path class="st1" d="M0,1080v-76.7c11.9,76.7,42.9,2.7,87.6-51.1c70.8-85.3,79.6-69.8,143.5-1.6c47.9,51.1,147.6,21.6,185.5-1.3
	c33.4,34.4,50.3,63.2,89.3,8.7c39.7-55.5,93.2-20.1,148.4-25.9V1080H0z"/>
</svg>
